<svg width="227" height="228" viewBox="0 0 227 228" fill="none" xmlns="http://www.w3.org/2000/svg">
<path d="M224 0H227V3H224V0Z" fill="#39B934"/>
<path d="M223 24H227V28H223V24Z" fill="#39B934"/>
<path d="M199 24H203V28H199V24Z" fill="#39B934"/>
<path d="M198 48H203V53H198V48Z" fill="#39B934"/>
<path d="M222 48H227V53H222V48Z" fill="#39B934"/>
<path d="M197 72H203V78H197V72Z" fill="#39B934"/>
<path d="M173 48H178V53H173V48Z" fill="#39B934"/>
<path d="M196 96H203V103H196V96Z" fill="#39B934"/>
<path d="M221 72H227V78H221V72Z" fill="#39B934"/>
<path d="M172 72H178V78H172V72Z" fill="#39B934"/>
<path d="M195 120H203V128H195V120Z" fill="#39B934"/>
<path d="M147 72H153V78H147V72Z" fill="#39B934"/>
<path d="M194 144H203V153H194V144Z" fill="#39B934"/>
<path d="M171 96H178V103H171V96Z" fill="#39B934"/>
<path d="M220 96H227V103H220V96Z" fill="#39B934"/>
<path d="M170 120H178V128H170V120Z" fill="#39B934"/>
<path d="M193 168H203V178H193V168Z" fill="#39B934"/>
<path d="M146 96H153V103H146V96Z" fill="#39B934"/>
<path d="M169 144H178V153H169V144Z" fill="#39B934"/>
<path d="M145 120H153V128H145V120Z" fill="#39B934"/>
<path d="M121 96H128V103H121V96Z" fill="#39B934"/>
<path d="M219 120H227V128H219V120Z" fill="#39B934"/>
<path d="M120 120H128V128H120V120Z" fill="#39B934"/>
<path d="M218 144H227V153H218V144Z" fill="#39B934"/>
<path d="M144 144H153V153H144V144Z" fill="#39B934"/>
<path d="M217 168H227V178H217V168Z" fill="#39B934"/>
<path d="M168 168H178V178H168V168Z" fill="#39B934"/>
<path d="M216 192H227V203H216V192Z" fill="#39B934"/>
<path d="M1.31134e-07 228L0 225H3L3 228H1.31134e-07Z" fill="#39B934"/>
<path d="M24 228V224H28V228H24Z" fill="#39B934"/>
<path d="M48 228V223H53V228H48Z" fill="#39B934"/>
<path d="M72 228V222H78V228H72Z" fill="#39B934"/>
<path d="M96 228V221H103V228H96Z" fill="#39B934"/>
<path d="M120 228V220H128V228H120Z" fill="#39B934"/>
<path d="M144 228V219H153V228H144Z" fill="#39B934"/>
<path d="M168 228V218H178V228H168Z" fill="#39B934"/>
<path d="M24 203V199H28V203H24Z" fill="#39B934"/>
<path d="M48 203V198H53V203H48Z" fill="#39B934"/>
<path d="M72 203V197H78V203H72Z" fill="#39B934"/>
<path d="M96 203V196H103V203H96Z" fill="#39B934"/>
<path d="M120 203V195H128V203H120Z" fill="#39B934"/>
<path d="M144 203V194H153V203H144Z" fill="#39B934"/>
<path d="M48 178V173H53V178H48Z" fill="#39B934"/>
<path d="M72 178V172H78V178H72Z" fill="#39B934"/>
<path d="M72 153V147H78V153H72Z" fill="#39B934"/>
<path d="M96 178V171H103V178H96Z" fill="#39B934"/>
<path d="M96 153V146H103V153H96Z" fill="#39B934"/>
<path d="M96 128V121H103V128H96Z" fill="#39B934"/>
<path d="M120 178V170H128V178H120Z" fill="#39B934"/>
<path d="M120 153V145H128V153H120Z" fill="#39B934"/>
<path d="M144 178V169H153V178H144Z" fill="#39B934"/>
<path d="M168 203V193H178V203H168Z" fill="#39B934"/>
<path d="M192 228V217H203V228H192Z" fill="#39B934"/>
<path d="M192 203V192H203V203H192Z" fill="#39B934"/>
<path d="M215 216H227V228H215V216Z" fill="#39B934"/>
</svg>
