<svg width="202" height="45" viewBox="0 0 202 45" fill="none" xmlns="http://www.w3.org/2000/svg">
<path d="M8.13599 14.936H24.312V20.984H8.13599V14.936ZM8.71199 28.76H27V35H0.983994V1.4H26.376V7.64H8.71199V28.76Z" fill="#39B934"/>
<path d="M44.9985 35.384C42.2145 35.384 39.7345 34.824 37.5585 33.704C35.3825 32.552 33.6705 30.968 32.4225 28.952C31.2065 26.936 30.5985 24.648 30.5985 22.088C30.5985 19.496 31.2065 17.208 32.4225 15.224C33.6705 13.208 35.3825 11.64 37.5585 10.52C39.7345 9.368 42.2145 8.792 44.9985 8.792C47.7185 8.792 50.0865 9.368 52.1025 10.52C54.1185 11.64 55.6065 13.256 56.5665 15.368L50.7585 18.488C50.0865 17.272 49.2385 16.376 48.2145 15.8C47.2225 15.224 46.1345 14.936 44.9505 14.936C43.6705 14.936 42.5185 15.224 41.4945 15.8C40.4705 16.376 39.6545 17.192 39.0465 18.248C38.4705 19.304 38.1825 20.584 38.1825 22.088C38.1825 23.592 38.4705 24.872 39.0465 25.928C39.6545 26.984 40.4705 27.8 41.4945 28.376C42.5185 28.952 43.6705 29.24 44.9505 29.24C46.1345 29.24 47.2225 28.968 48.2145 28.424C49.2385 27.848 50.0865 26.936 50.7585 25.688L56.5665 28.856C55.6065 30.936 54.1185 32.552 52.1025 33.704C50.0865 34.824 47.7185 35.384 44.9985 35.384Z" fill="#39B934"/>
<path d="M72.8377 35.384C70.0857 35.384 67.6377 34.808 65.4937 33.656C63.3817 32.504 61.7017 30.936 60.4537 28.952C59.2377 26.936 58.6297 24.648 58.6297 22.088C58.6297 19.496 59.2377 17.208 60.4537 15.224C61.7017 13.208 63.3817 11.64 65.4937 10.52C67.6377 9.368 70.0857 8.792 72.8377 8.792C75.5577 8.792 77.9897 9.368 80.1337 10.52C82.2777 11.64 83.9577 13.192 85.1737 15.176C86.3897 17.16 86.9977 19.464 86.9977 22.088C86.9977 24.648 86.3897 26.936 85.1737 28.952C83.9577 30.936 82.2777 32.504 80.1337 33.656C77.9897 34.808 75.5577 35.384 72.8377 35.384ZM72.8377 29.24C74.0857 29.24 75.2057 28.952 76.1977 28.376C77.1897 27.8 77.9737 26.984 78.5497 25.928C79.1257 24.84 79.4137 23.56 79.4137 22.088C79.4137 20.584 79.1257 19.304 78.5497 18.248C77.9737 17.192 77.1897 16.376 76.1977 15.8C75.2057 15.224 74.0857 14.936 72.8377 14.936C71.5897 14.936 70.4697 15.224 69.4777 15.8C68.4857 16.376 67.6857 17.192 67.0777 18.248C66.5017 19.304 66.2137 20.584 66.2137 22.088C66.2137 23.56 66.5017 24.84 67.0777 25.928C67.6857 26.984 68.4857 27.8 69.4777 28.376C70.4697 28.952 71.5897 29.24 72.8377 29.24Z" fill="#39B934"/>
<path d="M108.755 35.576C106.099 35.576 103.651 35.16 101.411 34.328C99.2029 33.464 97.2669 32.248 95.6029 30.68C93.9709 29.112 92.6909 27.272 91.7629 25.16C90.8669 23.048 90.4189 20.728 90.4189 18.2C90.4189 15.672 90.8669 13.352 91.7629 11.24C92.6909 9.128 93.9869 7.288 95.6509 5.72C97.3149 4.152 99.2669 2.952 101.507 2.12C103.747 1.256 106.211 0.823997 108.899 0.823997C111.875 0.823997 114.547 1.32 116.915 2.312C119.315 3.304 121.331 4.744 122.963 6.632L117.971 11.24C116.755 9.96 115.427 9.016 113.987 8.408C112.547 7.768 110.979 7.448 109.283 7.448C107.651 7.448 106.163 7.704 104.819 8.216C103.475 8.728 102.307 9.464 101.315 10.424C100.355 11.384 99.6029 12.52 99.0589 13.832C98.5469 15.144 98.2909 16.6 98.2909 18.2C98.2909 19.768 98.5469 21.208 99.0589 22.52C99.6029 23.832 100.355 24.984 101.315 25.976C102.307 26.936 103.459 27.672 104.771 28.184C106.115 28.696 107.587 28.952 109.187 28.952C110.723 28.952 112.211 28.712 113.651 28.232C115.123 27.72 116.547 26.872 117.923 25.688L122.339 31.304C120.515 32.68 118.387 33.736 115.955 34.472C113.555 35.208 111.155 35.576 108.755 35.576ZM115.235 30.296V17.672H122.339V31.304L115.235 30.296Z" fill="white"/>
<path d="M132.298 44.696C130.954 44.696 129.626 44.488 128.314 44.072C127.002 43.656 125.93 43.08 125.098 42.344L127.834 37.016C128.41 37.528 129.066 37.928 129.802 38.216C130.57 38.504 131.322 38.648 132.058 38.648C133.114 38.648 133.946 38.392 134.554 37.88C135.194 37.4 135.77 36.584 136.282 35.432L137.626 32.264L138.202 31.448L147.466 9.176H154.666L143.002 36.584C142.17 38.664 141.21 40.296 140.122 41.48C139.066 42.664 137.882 43.496 136.57 43.976C135.29 44.456 133.866 44.696 132.298 44.696ZM136.714 36.008L125.194 9.176H132.922L141.85 30.776L136.714 36.008Z" fill="white"/>
<path d="M190.794 8.792C192.842 8.792 194.65 9.208 196.218 10.04C197.818 10.84 199.066 12.088 199.962 13.784C200.89 15.448 201.354 17.592 201.354 20.216V35H193.866V21.368C193.866 19.288 193.434 17.752 192.57 16.76C191.706 15.768 190.49 15.272 188.922 15.272C187.834 15.272 186.858 15.528 185.994 16.04C185.13 16.52 184.458 17.256 183.978 18.248C183.498 19.24 183.258 20.504 183.258 22.04V35H175.77V21.368C175.77 19.288 175.338 17.752 174.474 16.76C173.642 15.768 172.442 15.272 170.874 15.272C169.786 15.272 168.81 15.528 167.946 16.04C167.082 16.52 166.41 17.256 165.93 18.248C165.45 19.24 165.21 20.504 165.21 22.04V35H157.722V9.176H164.874V16.232L163.53 14.168C164.426 12.408 165.69 11.08 167.322 10.184C168.986 9.256 170.874 8.792 172.986 8.792C175.354 8.792 177.418 9.4 179.178 10.616C180.97 11.8 182.154 13.624 182.73 16.088L180.09 15.368C180.954 13.352 182.33 11.752 184.218 10.568C186.138 9.384 188.33 8.792 190.794 8.792Z" fill="white"/>
</svg>
