<svg width="148" height="255" viewBox="0 0 148 255" fill="none" xmlns="http://www.w3.org/2000/svg">
<path d="M139.5 2.5H104.5L112.5 6.5L98 8.5H121.5L96 64L110 50L111 61.5L132.5 34.5L111.5 40.5L139.5 2.5Z" fill="#39B934"/>
<path d="M134.5 87.5L109 78.5L126 81L123 76L148 89.5L123.5 138L127 115.5L114.5 134H120L86.5 168.5L134.5 87.5Z" fill="#39B934"/>
<path d="M80 8.5H33.5L17.5 74.5L22 45.5L16 49.5L26 19.5L21 22.5L32 0L58.5 1L51.5 4.5L80 8.5Z" fill="#39B934"/>
<path d="M6 120.5L13 91.5L6 106L0 100V126.5L23.5 128.5L15.5 134.5L43.5 140.5L27 185.5L39 178L33 202.5L27 196L30.5 254.5L54.5 134L6 120.5Z" fill="#39B934"/>
<path d="M112.56 15.5L84.957 75.9131L127.109 91.6572L41.2695 235.15L59.7344 132.273L12.3945 117.165L38.2227 15.5H112.56ZM25.6055 109.835L72.2656 124.727L62.7295 177.851L110.891 97.3418L70.043 82.0859L95.4395 26.5H46.7783L25.6055 109.835Z" fill="#39B934"/>
</svg>
