<svg width="24" height="24" viewBox="0 0 24 24" fill="none" xmlns="http://www.w3.org/2000/svg">
<path d="M19.95 22C20.25 22 20.5 21.9 20.7 21.7C20.9 21.5 21 21.25 21 20.95V16.9C21 16.6833 20.925 16.4875 20.775 16.3125C20.625 16.1375 20.4333 16.0167 20.2 15.95L16.75 15.25C16.5167 15.2167 16.2792 15.2375 16.0375 15.3125C15.7958 15.3875 15.6 15.5 15.45 15.65L13.1 18C12.4667 17.6333 11.8667 17.2292 11.3 16.7875C10.7333 16.3458 10.1917 15.8667 9.675 15.35C9.125 14.8167 8.62083 14.2625 8.1625 13.6875C7.70417 13.1125 7.30833 12.5167 6.975 11.9L9.4 9.45C9.53333 9.31667 9.625 9.15833 9.675 8.975C9.725 8.79167 9.73333 8.56667 9.7 8.3L9.05 4.8C9.01667 4.58333 8.90833 4.39583 8.725 4.2375C8.54167 4.07917 8.33333 4 8.1 4H4.05C3.75 4 3.5 4.1 3.3 4.3C3.1 4.5 3 4.75 3 5.05C3 7.13333 3.45417 9.19167 4.3625 11.225C5.27083 13.2583 6.55833 15.1083 8.225 16.775C9.89167 18.4417 11.7417 19.7292 13.775 20.6375C15.8083 21.5458 17.8667 22 19.95 22ZM6.05 10C5.76667 9.35 5.55 8.69167 5.4 8.025C5.25 7.35833 5.13333 6.68333 5.05 6H7.25L7.7 8.35L6.05 10ZM15 18.9L16.65 17.25L19 17.75V19.95C18.3167 19.9 17.6417 19.7833 16.975 19.6C16.3083 19.4167 15.65 19.1833 15 18.9Z" fill="#B2B2B2"/>
</svg>
